<svg id="Layer_1" data-name="Layer 1" xmlns="http://www.w3.org/2000/svg" width="512" height="13.331" viewBox="0 0 512 13.331">
  <defs>
    <style>
      .cls-1 {
        fill: #66dbff;
      }
    </style>
  </defs>
  <title>Waves</title>
  <path class="cls-1" d="M512,225.669V239H0V225.669a29.441,29.441,0,0,1,16,4.725,29.456,29.456,0,0,0,32,0,29.446,29.446,0,0,1,32,0,29.458,29.458,0,0,0,32,0,29.456,29.456,0,0,1,32,0,29.446,29.446,0,0,0,32,0,29.458,29.458,0,0,1,32,0,29.456,29.456,0,0,0,32,0,29.446,29.446,0,0,1,32,0,29.456,29.456,0,0,0,32,0,29.458,29.458,0,0,1,32,0,29.446,29.446,0,0,0,32,0,29.456,29.456,0,0,1,32,0,29.458,29.458,0,0,0,32,0,29.446,29.446,0,0,1,32,0,29.448,29.448,0,0,0,32,0A29.441,29.441,0,0,1,512,225.669Z" transform="translate(0 -225.669)"/>
</svg>
